<svg version="1.2" xmlns="http://www.w3.org/2000/svg" viewBox="0 0 31 31" width="31" height="31"><style>.a{fill:#232323}</style><path fill-rule="evenodd" class="a" d="m16 7.3c4.3 0 7.7 3.4 7.7 7.7 0 4.2-3.4 7.7-7.7 7.7-4.2 0-7.7-3.5-7.7-7.7 0-4.3 3.5-7.7 7.7-7.7zm0 12.7c2.8 0 5-2.2 5-5 0-2.8-2.2-5-5-5-2.8 0-5 2.2-5 5 0 2.8 2.2 5 5 5z"/><path fill-rule="evenodd" class="a" d="m22.2 0.1c5.6 0.3 8.5 3.4 8.7 8.7 0.1 2.8 0.1 9.6 0 12.4-0.2 4.4-2.3 6.9-5.1 8-2 0.8-4 0.8-9.8 0.8-5.6 0-9.6 0.4-12.5-2.5-2.8-2.9-2.5-6.7-2.5-12.5 0-5.7-0.4-9.6 2.5-12.5 1.8-1.7 3.9-2.3 6.3-2.4 2.8-0.1 9.6-0.1 12.4 0zm4.4 25.5c1.8-1.9 1.7-4.4 1.7-10.6 0-4 0-4.5-0.1-6.1-0.3-6.9-5.5-6.2-12.2-6.2-4.1 0-4.5 0-6.1 0-7 0.4-6.2 5.4-6.2 12.3 0 5.1-0.4 8.4 1.7 10.5 1.8 1.9 4.3 1.8 10.6 1.8 6 0 8.7 0.2 10.6-1.7z"/><path class="a" d="m25.8 7c0 1-0.8 1.8-1.8 1.8-1 0-1.8-0.8-1.8-1.8 0-1 0.8-1.8 1.8-1.8 1 0 1.8 0.8 1.8 1.8z"/></svg>